<svg width="185" height="185" viewBox="0 0 185 185" fill="none" xmlns="http://www.w3.org/2000/svg">
<path d="M92.4715 184.943C143.542 184.943 184.943 143.542 184.943 92.4715C184.943 41.4009 143.542 0 92.4715 0C41.4009 0 0 41.4009 0 92.4715C0 143.542 41.4009 184.943 92.4715 184.943Z" fill="#E0E0E0"/>
<path d="M172.183 92.4714H176.483L176.373 96.7915L176.053 101.062L175.513 105.262L174.783 109.402L173.843 113.472L172.703 117.452L171.383 121.362L169.883 125.172L168.203 128.892L166.343 132.522L164.323 136.042L162.133 139.442L159.793 142.742L157.303 145.912L154.663 148.962L151.883 151.882L148.962 154.662L145.912 157.302L142.742 159.793L139.442 162.133L136.042 164.323L132.522 166.343L128.892 168.203L125.172 169.883L121.362 171.383L117.452 172.703L113.472 173.843L109.402 174.783L105.262 175.513L101.062 176.053L96.7916 176.373L92.4716 176.483V172.183L96.5816 172.083L100.622 171.773L104.612 171.263L108.542 170.563L112.392 169.673L116.182 168.603L119.882 167.343L123.502 165.923L127.032 164.323L130.462 162.563L133.802 160.643L137.042 158.573L140.162 156.352L143.172 153.982L146.072 151.472L148.832 148.832L151.473 146.072L153.983 143.172L156.353 140.162L158.573 137.042L160.643 133.802L162.563 130.462L164.323 127.032L165.923 123.502L167.343 119.882L168.603 116.182L169.673 112.392L170.563 108.542L171.263 104.612L171.773 100.622L172.083 96.5815L172.183 92.4714ZM92.4716 12.7602V8.46008L96.7916 8.57008L101.062 8.90009L105.262 9.4301L109.402 10.1701L113.472 11.1101L117.452 12.2401L121.362 13.5602L125.172 15.0602L128.892 16.7502L132.522 18.6002L136.042 20.6303L139.442 22.8103L142.742 25.1504L145.912 27.6504L148.962 30.2904L151.883 33.0705L154.663 35.9805L157.303 39.0306L159.793 42.2106L162.133 45.5007L164.323 48.9107L166.343 52.4308L168.203 56.0509L169.883 59.7709L171.383 63.591L172.703 67.491L173.843 71.4811L174.783 75.5412L175.513 79.6812L176.053 83.8913L176.373 88.1514L176.483 92.4714H172.183L172.083 88.3714L171.773 84.3213L171.263 80.3312L170.563 76.4012L169.673 72.5511L168.603 68.7711L167.343 65.061L165.923 61.4509L164.323 57.9209L162.563 54.4808L160.643 51.1408L158.573 47.9107L156.353 44.7807L153.983 41.7706L151.473 38.8806L148.832 36.1105L146.072 33.4705L143.172 30.9604L140.162 28.6004L137.042 26.3704L133.802 24.3003L130.462 22.3803L127.032 20.6203L123.502 19.0303L119.882 17.6002L116.182 16.3502L112.392 15.2702L108.542 14.3802L104.612 13.6802L100.622 13.1702L96.5816 12.8702L92.4716 12.7602ZM12.7603 92.4714H8.46021L8.57021 88.1514L8.90021 83.8913L9.43022 79.6812L10.1702 75.5412L11.1102 71.4811L12.2403 67.491L13.5603 63.591L15.0603 59.7709L16.7503 56.0509L18.6004 52.4308L20.6304 48.9107L22.8104 45.5007L25.1505 42.2106L27.6505 39.0306L30.2906 35.9805L33.0706 33.0705L35.9806 30.2904L39.0307 27.6504L42.2108 25.1504L45.5008 22.8103L48.9109 20.6303L52.4309 18.6002L56.051 16.7502L59.771 15.0602L63.5911 13.5602L67.4912 12.2401L71.4812 11.1101L75.5413 10.1701L79.6814 9.4301L83.8914 8.90009L88.1515 8.57008L92.4716 8.46008V12.7602L88.3715 12.8702L84.3214 13.1702L80.3314 13.6802L76.4013 14.3802L72.5512 15.2702L68.7712 16.3502L65.0611 17.6002L61.4511 19.0303L57.921 20.6203L54.4809 22.3803L51.1409 24.3003L47.9108 26.3704L44.7808 28.6004L41.7707 30.9604L38.8807 33.4705L36.1107 36.1105L33.4706 38.8806L30.9606 41.7706L28.6005 44.7807L26.3705 47.9107L24.3005 51.1408L22.3804 54.4808L20.6204 57.9209L19.0304 61.4509L17.6004 65.061L16.3503 68.7711L15.2703 72.5511L14.3803 76.4012L13.6803 80.3312L13.1703 84.3213L12.8703 88.3714L12.7603 92.4714ZM92.4716 172.183V176.483L88.1515 176.373L83.8914 176.053L79.6814 175.513L75.5413 174.783L71.4812 173.843L67.4912 172.703L63.5911 171.383L59.771 169.883L56.051 168.203L52.4309 166.343L48.9109 164.323L45.5008 162.133L42.2108 159.793L39.0307 157.302L35.9806 154.662L33.0706 151.882L30.2906 148.962L27.6505 145.912L25.1505 142.742L22.8104 139.442L20.6304 136.042L18.6004 132.522L16.7503 128.892L15.0603 125.172L13.5603 121.362L12.2403 117.452L11.1102 113.472L10.1702 109.402L9.43022 105.262L8.90021 101.062L8.57021 96.7915L8.46021 92.4714H12.7603L12.8703 96.5815L13.1703 100.622L13.6803 104.612L14.3803 108.542L15.2703 112.392L16.3503 116.182L17.6004 119.882L19.0304 123.502L20.6204 127.032L22.3804 130.462L24.3005 133.802L26.3705 137.042L28.6005 140.162L30.9606 143.172L33.4706 146.072L36.1107 148.832L38.8807 151.472L41.7707 153.982L44.7808 156.352L47.9108 158.573L51.1409 160.643L54.4809 162.563L57.921 164.323L61.4511 165.923L65.0611 167.343L68.7712 168.603L72.5512 169.673L76.4013 170.563L80.3314 171.263L84.3214 171.773L88.3715 172.083L92.4716 172.183Z" fill="#FEFEFE"/>
<path d="M133.262 63.3011C132.792 62.021 132.392 60.621 132.042 59.111C131.692 57.591 131.222 56.171 130.642 54.8309C130.062 53.4909 129.302 52.3009 128.372 51.2509C127.442 50.2009 126.212 49.4408 124.702 48.9808C121.212 49.2108 118.702 49.9409 117.192 51.1609C115.672 52.3809 114.042 53.7509 112.302 55.2609C107.172 62.8311 103.362 70.9012 100.852 79.4613C98.3516 88.0215 96.2316 96.7216 94.4815 105.582C93.5515 107.322 92.6715 108.432 91.8615 108.892C91.0415 109.362 90.1115 109.482 89.0614 109.242C87.3214 108.662 86.2714 107.382 85.9214 105.402C85.4514 101.792 85.2214 98.1216 85.2214 94.4016C85.2214 90.6715 85.1914 86.9114 85.1314 83.1314C85.0714 79.3413 84.8714 75.6213 84.5214 71.9512C84.1714 68.2811 83.4114 64.7611 82.2513 61.381C81.2013 58.471 79.6313 55.9609 77.5313 53.8709C75.4412 51.7709 73.0512 50.2609 70.3711 49.3308C68.2711 48.7408 66.4411 48.9508 64.8711 49.9409C63.301 50.9309 61.931 52.1809 60.761 53.6909C60.061 53.8109 59.511 54.3609 59.101 55.3509C58.701 56.341 58.3809 57.131 58.1409 57.711C55.7009 63.7711 54.6809 70.2612 55.0909 77.1913C55.4909 84.1214 56.3409 90.7315 57.6209 97.0216C58.4309 100.862 59.341 104.912 60.331 109.162C61.321 113.412 62.711 117.432 64.521 121.212C66.3211 125.002 68.6811 128.312 71.5912 131.172C74.5112 134.022 78.2913 135.912 82.9513 136.852C85.2814 136.962 87.4914 136.642 89.5914 135.882C91.6815 135.132 93.6615 134.112 95.5315 132.832C97.3916 131.552 99.1916 130.062 100.942 128.372C102.692 126.682 104.382 125.022 106.012 123.392C109.502 118.972 112.912 114.482 116.232 109.942C119.552 105.402 122.522 100.682 125.142 95.7916C127.762 90.9015 129.792 85.7814 131.252 80.4213C132.712 75.0613 133.382 69.3612 133.262 63.3011ZM140.602 67.1411C140.362 74.0112 139.322 80.3013 137.452 86.0114C135.592 91.7215 133.112 97.1616 130.032 102.342C126.942 107.532 123.362 112.502 119.282 117.282C115.212 122.052 110.902 126.952 106.362 131.952C102.632 136.152 98.1516 139.092 92.9115 140.782C87.6714 142.462 82.3113 142.492 76.8312 140.862C72.7612 139.702 69.2911 137.812 66.4411 135.192C63.591 132.572 61.141 129.572 59.101 126.192C57.0709 122.812 55.4309 119.202 54.2109 115.362C52.9909 111.522 51.9708 107.852 51.1608 104.352C50.3408 100.512 49.5808 96.4616 48.8808 92.2115C48.1908 87.9615 47.7208 83.6514 47.4908 79.2813C47.2508 74.9213 47.3408 70.6112 47.7508 66.3611C48.1608 62.111 49.1208 58.121 50.6308 54.3909C51.6808 51.7109 53.0809 49.6508 54.8209 48.1908C56.5709 46.7308 58.4309 45.3708 60.411 44.0808C62.631 42.5707 65.3011 41.9007 68.4511 42.0807C71.5912 42.2507 74.3912 42.9207 76.8312 44.0808C79.8613 45.4808 82.3413 47.3208 84.2614 49.5908C86.1814 51.8609 87.7514 54.3309 88.9814 57.011C90.2015 59.691 91.1615 62.5411 91.8615 65.5711C92.5615 68.6012 93.2615 71.5112 93.9515 74.3112L94.3015 73.9612C95.5815 69.5312 97.2416 65.2211 99.2816 61.031C101.322 56.841 104.032 52.9409 107.412 49.3308C110.552 47.1108 114.012 45.2808 117.802 43.8208C121.582 42.3707 125.402 42.2207 129.242 43.3907C133.432 44.6708 136.202 46.7308 137.542 49.5908C138.882 52.4409 139.662 55.5609 139.902 58.931C140.012 59.631 140.132 60.391 140.252 61.201C140.362 61.901 140.452 62.7511 140.512 63.7411C140.572 64.7311 140.602 65.8611 140.602 67.1411Z" fill="#FEFEFE"/>
</svg>
